<?xml version="1.0" encoding="utf-8"?>
<!-- Generator: Adobe Illustrator 24.0.1, SVG Export Plug-In . SVG Version: 6.00 Build 0)  -->
<svg version="1.0" id="Layer_1" xmlns="http://www.w3.org/2000/svg" xmlns:xlink="http://www.w3.org/1999/xlink" x="0px" y="0px"
	 width="90px" height="90px" viewBox="0 0 90 90" style="enable-background:new 0 0 90 90;" xml:space="preserve">
<style type="text/css">
	.st0{fill:#001B4D;}
</style>
<path class="st0" d="M89.6,30.1L70.5,10.4c-0.2-0.3-0.6-0.4-0.9-0.4c-0.3,0-0.7,0.1-0.9,0.4L58.3,21c-0.9,0.9-1.4,2.2-1.4,3.5
	c0,0.8,0.2,1.5,0.5,2.2l-3.5,3.6h-8.5c-1.7,0-3.4,0.8-4.7,2.1l-3.2,3.4l-1.2-0.5l-3.7-3.9c0.4-0.7,0.5-1.5,0.5-2.3
	c0-1.3-0.5-2.6-1.4-3.5L21.4,15c-0.2-0.3-0.6-0.4-0.9-0.4c-0.3,0-0.7,0.1-0.9,0.4L0.4,34.7C0.1,35,0,35.3,0,35.7
	c0,0.4,0.1,0.7,0.4,1l10.3,10.6c0.9,0.9,2.1,1.4,3.4,1.4c0.8,0,1.6-0.2,2.3-0.6l2.6,2.7l3.3,6.2l-1.5,1.5c-0.8,0.9-1.3,2-1.3,3.2
	c0,1.2,0.5,2.4,1.3,3.2c0.8,0.9,1.9,1.3,3.1,1.3c0,1.2,0.5,2.3,1.3,3.2c0.8,0.9,1.9,1.3,3.1,1.3c0,1.2,0.5,2.3,1.3,3.2
	c0.8,0.9,1.9,1.3,3.1,1.3c0,1.2,0.4,2.3,1.3,3.2c0.8,0.9,1.9,1.3,3.1,1.3c1.2,0,2.3-0.5,3.1-1.3l1.1-1.1l1.2,1.2
	c0.8,0.9,1.9,1.3,3.1,1.3c1.2,0,2.3-0.5,3.1-1.3c0.9-0.9,1.3-2,1.3-3.2c1.2,0,2.3-0.5,3.1-1.3c0.9-0.9,1.3-2,1.3-3.2
	c1.2,0,2.3-0.5,3.1-1.3c0.9-0.9,1.3-2,1.3-3.2c1.2,0,2.3-0.5,3.1-1.3c1.6-1.7,1.7-4.3,0.3-6.1l4-4c0.1-0.1,0.2-0.2,0.2-0.3l3.7-7.5
	l3.4-3.5c0.7,0.4,1.5,0.6,2.3,0.6c1.3,0,2.5-0.5,3.4-1.4l10.3-10.6c0.2-0.3,0.4-0.6,0.4-1C90,30.7,89.9,30.4,89.6,30.1z M12.6,45.3
	l-9.4-9.7l17.3-17.8l9.4,9.7c0.4,0.4,0.6,1,0.6,1.6c0,0.6-0.2,1.2-0.6,1.6L15.6,45.3c-0.4,0.4-1,0.7-1.5,0.7
	C13.5,46,13,45.8,12.6,45.3z M22.1,61.8c0-0.5,0.2-1,0.5-1.3l5.4-5.5c0.3-0.4,0.8-0.5,1.3-0.5c0.5,0,0.9,0.2,1.3,0.5
	c0.3,0.4,0.5,0.8,0.5,1.3c0,0.5-0.2,1-0.5,1.3c0,0,0,0,0,0l-5.4,5.5c0,0,0,0,0,0c-0.3,0.3-0.8,0.5-1.3,0.5c-0.5,0-0.9-0.2-1.3-0.5
	C22.3,62.7,22.1,62.3,22.1,61.8z M26.5,66.3c0-0.5,0.2-1,0.5-1.3c0,0,0,0,0,0l5.4-5.5c0,0,0,0,0,0c0.3-0.3,0.8-0.5,1.3-0.5
	c0.5,0,0.9,0.2,1.3,0.5c0.3,0.3,0.5,0.8,0.5,1.3c0,0.5-0.2,1-0.5,1.3c0,0,0,0,0,0l-5.4,5.5c0,0,0,0,0,0c-0.3,0.3-0.8,0.5-1.3,0.5
	c-0.5,0-0.9-0.2-1.3-0.5C26.7,67.2,26.5,66.8,26.5,66.3z M30.9,70.8c0-0.5,0.2-1,0.5-1.3c0,0,0,0,0,0l5.4-5.5c0,0,0,0,0,0
	c0.3-0.3,0.8-0.5,1.3-0.5c0.5,0,0.9,0.2,1.3,0.5c0.3,0.3,0.5,0.8,0.5,1.3c0,0.5-0.2,1-0.5,1.3c0,0,0,0,0,0L34,72.1c0,0,0,0,0,0
	c-0.3,0.3-0.8,0.5-1.3,0.5c-0.5,0-0.9-0.2-1.3-0.5C31.1,71.8,30.9,71.3,30.9,70.8z M38.4,76.7c-0.3,0.3-0.8,0.5-1.3,0.5
	s-0.9-0.2-1.3-0.5c-0.7-0.7-0.7-1.9,0-2.6c0,0,0,0,0,0l5.4-5.5c0,0,0,0,0,0c0.3-0.3,0.8-0.5,1.3-0.5c0.5,0,0.9,0.2,1.3,0.5
	c0.3,0.4,0.5,0.8,0.5,1.3c0,0.5-0.2,1-0.5,1.3L38.4,76.7z M60.2,63.2c-0.3,0.4-0.8,0.5-1.3,0.5h0c-0.5,0-0.9-0.2-1.3-0.5
	c-0.5-0.5-1.3-0.5-1.9,0c-0.5,0.5-0.5,1.4,0,1.9c0.7,0.7,0.7,1.9,0,2.6c-0.3,0.4-0.8,0.5-1.3,0.5c-0.5,0-0.9-0.2-1.3-0.5
	c-0.5-0.5-1.3-0.5-1.9,0c-0.5,0.5-0.5,1.4,0,1.9c0.7,0.7,0.7,1.9,0,2.6c-0.3,0.3-0.8,0.5-1.3,0.5c-0.5,0-0.9-0.2-1.3-0.5
	c-0.5-0.5-1.3-0.5-1.9,0c-0.5,0.5-0.5,1.4,0,1.9c0.7,0.7,0.7,1.9,0,2.6c-0.3,0.3-0.8,0.5-1.3,0.5c-0.5,0-0.9-0.2-1.3-0.5l-1.2-1.2
	l2.4-2.5c0.8-0.9,1.3-2,1.3-3.2c0-1.2-0.5-2.4-1.3-3.2c-0.8-0.9-1.9-1.3-3.1-1.3c0-1.2-0.5-2.3-1.3-3.2c-0.8-0.9-1.9-1.3-3.1-1.3
	c0-1.2-0.5-2.3-1.3-3.2c-0.8-0.9-1.9-1.3-3.1-1.3c0-1.2-0.5-2.3-1.3-3.2c-0.8-0.9-1.9-1.3-3.1-1.3c-1.2,0-2.3,0.5-3.1,1.3l-2,2
	l-3-5.7c-0.1-0.1-0.1-0.2-0.2-0.3l-2.6-2.7l12.5-12.9l3.8,3.9c0.1,0.1,0.3,0.2,0.5,0.3l0.4,0.2l-2.1,2.1c-0.8,0.9-1.3,2-1.3,3.2
	c0,1.2,0.5,2.4,1.3,3.2c0.9,0.9,2,1.3,3.1,1.3c1.1,0,2.3-0.4,3.1-1.3L43,43l11.8,12l5.4,5.5C60.9,61.3,60.9,62.4,60.2,63.2z
	 M68.2,45.3c-0.1,0.1-0.2,0.2-0.2,0.3l-3.7,7.5l-3.8,3.9l-3.9-4l-11.8-12L45,41c0.5-0.5,0.5-1.4,0-1.9c-0.5-0.5-1.3-0.5-1.9,0
	l-5.2,5.4c-0.7,0.7-1.8,0.7-2.5,0c-0.3-0.4-0.5-0.8-0.5-1.3c0-0.5,0.2-1,0.5-1.3l7.3-7.5c0.1-0.1,0.2-0.2,0.2-0.3
	c0.7-0.7,1.7-1.1,2.6-1.1h9c0.3,0,0.7-0.1,0.9-0.3l3.7-3.8l12.6,13L68.2,45.3z M77.4,40.8c-0.4,0.4-1,0.7-1.5,0.7
	c-0.6,0-1.1-0.2-1.5-0.7L60.1,26.1c-0.4-0.4-0.6-1-0.6-1.6c0-0.6,0.2-1.2,0.6-1.6l9.4-9.7l17.3,17.8L77.4,40.8z"/>
</svg>
