<?xml version="1.0" encoding="utf-8"?>
<!-- Generator: Adobe Illustrator 17.0.0, SVG Export Plug-In . SVG Version: 6.00 Build 0)  -->
<!DOCTYPE svg PUBLIC "-//W3C//DTD SVG 1.1//EN" "http://www.w3.org/Graphics/SVG/1.1/DTD/svg11.dtd">
<svg version="1.1" id="Layer_1" xmlns="http://www.w3.org/2000/svg" xmlns:xlink="http://www.w3.org/1999/xlink" x="0px" y="0px"
	 width="90px" height="90px" viewBox="0 0 90 90" enable-background="new 0 0 90 90" xml:space="preserve">
<g>
	<path fill="#002654" d="M45,0.6C20.782,0.6,1.1,20.282,1.1,44.5S20.782,88.4,45,88.4s43.9-19.682,43.9-43.9S69.218,0.6,45,0.6z
		 M45,5.221c19.159,0,35.067,13.677,38.557,31.806C73.221,31.58,59.75,28.326,45,28.326S16.779,31.58,6.443,37.027
		C9.933,18.899,25.841,5.221,45,5.221z M34.386,82.335C20.807,78.542,10.206,67.639,6.84,53.887
		c0.776-0.077,1.562-0.144,2.347-0.144c14.064,0,25.416,11.352,25.416,25.416C34.603,80.232,34.514,81.299,34.386,82.335z
		 M55.614,82.335c-0.128-1.036-0.217-2.103-0.217-3.177c0-14.064,11.352-25.416,25.416-25.416c0.785,0,1.57,0.068,2.347,0.144
		C79.794,67.639,69.193,78.542,55.614,82.335z M80.813,49.121c-16.562,0-30.037,13.475-30.037,30.037
		c0,1.425,0.102,2.813,0.289,4.188C49.09,83.65,47.061,83.779,45,83.779s-4.09-0.129-6.065-0.433
		c0.187-1.375,0.289-2.763,0.289-4.188c0-16.562-13.475-30.037-30.037-30.037c-1.084,0-2.134,0.064-3.177,0.181
		c-0.192-1.576-0.289-3.173-0.289-4.802c0-0.594,0.01-1.182,0.036-1.769c9.748-5.941,23.714-9.784,39.243-9.784
		s29.495,3.843,39.243,9.784c0.026,0.587,0.036,1.175,0.036,1.769c0,1.628-0.097,3.225-0.289,4.802
		C82.947,49.185,81.897,49.121,80.813,49.121z"/>
	<path fill="#002654" d="M45,38.724c-5.077,0-9.242,4.165-9.242,9.242c0,5.077,4.165,9.242,9.242,9.242s9.242-4.165,9.242-9.242
		C54.242,42.889,50.077,38.724,45,38.724z M45,52.587c-2.579,0-4.621-2.041-4.621-4.621c0-2.58,2.042-4.621,4.621-4.621
		s4.621,2.041,4.621,4.621C49.621,50.545,47.579,52.587,45,52.587z"/>
</g>
</svg>
