<?xml version="1.0" encoding="utf-8"?>
<!-- Generator: Adobe Illustrator 17.0.0, SVG Export Plug-In . SVG Version: 6.00 Build 0)  -->
<!DOCTYPE svg PUBLIC "-//W3C//DTD SVG 1.1//EN" "http://www.w3.org/Graphics/SVG/1.1/DTD/svg11.dtd">
<svg version="1.1" id="Layer_1" xmlns="http://www.w3.org/2000/svg" xmlns:xlink="http://www.w3.org/1999/xlink" x="0px" y="0px"
	 width="90px" height="90px" viewBox="0 0 90 90" enable-background="new 0 0 90 90" xml:space="preserve">
<g display="none">
	<path display="inline" fill="#002654" d="M45,0.6C20.782,0.6,1.1,20.282,1.1,44.5S20.782,88.4,45,88.4s43.9-19.682,43.9-43.9
		S69.218,0.6,45,0.6z M45,5.221c19.159,0,35.067,13.677,38.557,31.806C73.221,31.58,59.75,28.326,45,28.326
		S16.779,31.58,6.443,37.027C9.933,18.899,25.841,5.221,45,5.221z M34.386,82.335C20.807,78.542,10.206,67.639,6.84,53.887
		c0.776-0.077,1.562-0.144,2.347-0.144c14.064,0,25.416,11.352,25.416,25.416C34.603,80.232,34.514,81.299,34.386,82.335z
		 M55.614,82.335c-0.128-1.036-0.217-2.103-0.217-3.177c0-14.064,11.352-25.416,25.416-25.416c0.785,0,1.57,0.068,2.347,0.144
		C79.794,67.639,69.193,78.542,55.614,82.335z M80.813,49.121c-16.562,0-30.037,13.475-30.037,30.037
		c0,1.425,0.102,2.813,0.289,4.188C49.09,83.65,47.061,83.779,45,83.779s-4.09-0.129-6.065-0.433
		c0.187-1.375,0.289-2.763,0.289-4.188c0-16.562-13.475-30.037-30.037-30.037c-1.084,0-2.134,0.064-3.177,0.181
		c-0.192-1.576-0.289-3.173-0.289-4.802c0-0.594,0.01-1.182,0.036-1.769c9.748-5.941,23.714-9.784,39.243-9.784
		s29.495,3.843,39.243,9.784c0.026,0.587,0.036,1.175,0.036,1.769c0,1.628-0.097,3.225-0.289,4.802
		C82.947,49.185,81.897,49.121,80.813,49.121z"/>
	<path display="inline" fill="#002654" d="M45,38.724c-5.077,0-9.242,4.165-9.242,9.242c0,5.077,4.165,9.242,9.242,9.242
		s9.242-4.165,9.242-9.242C54.242,42.889,50.077,38.724,45,38.724z M45,52.587c-2.579,0-4.621-2.041-4.621-4.621
		c0-2.58,2.042-4.621,4.621-4.621s4.621,2.041,4.621,4.621C49.621,50.545,47.579,52.587,45,52.587z"/>
</g>
<g>
	<g>
		<path fill="#002654" stroke="#002654" stroke-width="0.5" stroke-miterlimit="10" d="M45.892,89.402
			C66.338,89.402,83,72.74,83,52.294c0-12.069-5.854-23.418-15.762-30.353l-0.09,0.18c0.18-3.963-0.811-8.016-2.882-11.619
			C60.483,3.838,53.548-0.125,45.892-0.125S31.391,3.838,27.518,10.503c-2.072,3.513-3.062,7.476-2.882,11.349
			C14.729,28.787,8.784,40.135,8.784,52.294C8.784,72.74,25.447,89.402,45.892,89.402z M22.835,77.783
			c1.531-1.261,3.783-2.882,6.575-4.323c1.891,5.134,4.413,9.277,7.386,12.069C31.571,84.088,26.798,81.386,22.835,77.783z
			 M44.541,86.61c-5.134-0.811-9.637-6.305-12.609-14.321c3.513-1.531,7.746-2.612,12.609-2.792V86.61z M44.541,66.705
			c-5.134,0.18-9.637,1.351-13.42,2.972c-1.441-4.774-2.342-10.268-2.432-16.032h11.349l4.503,7.746V66.705z M28.689,50.943
			c0.09-4.774,0.721-9.457,1.801-13.78l8.016,13.78H28.689z M47.243,86.61V69.497c4.864,0.18,9.097,1.261,12.609,2.792
			C56.97,80.215,52.377,85.709,47.243,86.61z M63.095,53.645c-0.09,5.764-0.991,11.258-2.432,16.032
			c-3.783-1.531-8.286-2.702-13.42-2.882v-5.404l4.503-7.746C51.747,53.645,63.095,53.645,63.095,53.645z M53.278,50.943
			l8.016-13.78c1.081,4.323,1.711,9.007,1.801,13.78H53.278z M54.899,85.529c2.972-2.792,5.584-6.935,7.476-12.069
			c2.792,1.441,5.044,3.062,6.665,4.323C65.077,81.386,60.303,84.088,54.899,85.529z M71.021,75.802
			c-1.801-1.531-4.413-3.332-7.746-5.044c1.531-5.044,2.432-10.898,2.522-17.113h14.501C79.938,62.202,76.515,69.948,71.021,75.802z
			 M80.298,50.943H65.797c-0.09-5.764-0.991-11.349-2.432-16.392c3.963-1.891,6.395-4.053,7.926-5.494
			C76.695,35.001,79.938,42.747,80.298,50.943z M66.878,24.914c0.901,0.721,1.711,1.441,2.522,2.162
			c-0.991,0.991-2.432,2.252-4.413,3.513C65.887,28.787,66.518,26.895,66.878,24.914z M29.86,11.854
			c3.333-5.764,9.367-9.277,16.032-9.277s12.7,3.513,16.032,9.277c3.332,5.764,3.332,12.7,0,18.554L45.892,58.239L31.121,32.75l0,0
			l0,0l-1.261-2.252C26.438,24.644,26.438,17.618,29.86,11.854z M24.906,24.914c0.36,1.891,0.901,3.693,1.801,5.404
			c-1.891-1.261-3.242-2.432-4.233-3.332C23.285,26.265,24.096,25.634,24.906,24.914z M20.583,28.877
			c1.441,1.441,3.963,3.693,7.836,5.584c-1.441,5.044-2.252,10.628-2.432,16.482H11.486C11.847,42.657,15.089,34.911,20.583,28.877z
			 M25.987,53.645c0.09,6.305,0.991,12.159,2.522,17.203c-3.332,1.711-5.944,3.603-7.656,5.044
			c-5.494-5.854-9.007-13.69-9.367-22.247H25.987z"/>
		<path fill="#002654" stroke="#002654" stroke-width="0.5" stroke-miterlimit="10" d="M45.892,28.697
			c5.494,0,9.997-4.503,9.997-9.997S51.386,8.612,45.892,8.612s-9.997,4.503-9.997,9.997S40.398,28.697,45.892,28.697z
			 M45.892,11.314c4.053,0,7.295,3.242,7.295,7.295s-3.332,7.295-7.295,7.295s-7.295-3.242-7.295-7.295
			C38.597,14.646,41.839,11.314,45.892,11.314z"/>
	</g>
</g>
</svg>
